HIERARCHY
ROOT Hips
{
     OFFSET 1.88212 96.90440 -13.34250
     CHANNELS 6 Xposition Yposition Zposition Zrotation Xrotation Yrotation
     JOINT Spine
     {
          OFFSET 0.00000 11.89050 0.00000
          CHANNELS 3 Zrotation Xrotation Yrotation
          JOINT Spine1
          {
               OFFSET -0.00000 25.65740 0.12766
               CHANNELS 3 Zrotation Xrotation Yrotation
               JOINT HEad
               {
                    OFFSET 0.00000 8.73416 0.01134
                    CHANNELS 3 Zrotation Xrotation Yrotation
                    End Site
                    {
                         OFFSET -0.29000 12.77420 2.51395
                    }
               }
               JOINT LeftShoulder1
               {
                    OFFSET 8.99000 -0.36225 -0.22000
                    CHANNELS 3 Zrotation Xrotation Yrotation
                    JOINT LeftArm
                    {
                         OFFSET 10.28270 -0.00338 0.32212
                         CHANNELS 3 Zrotation Xrotation Yrotation
                         JOINT LeftForeArm
                         {
                              OFFSET 32.76690 0.09914 -1.42434
                              CHANNELS 3 Zrotation Xrotation Yrotation
                              JOINT LeftHand
                              {
                                   OFFSET 27.56430 0.08536 1.02216
                                   CHANNELS 3 Zrotation Xrotation Yrotation
                                   End Site
                                   {
                                        OFFSET 16.74430 -0.60000 1.50291
                                   }
                              }
                         }
                    }
               }
               JOINT RightShoulder
               {
                    OFFSET -8.99000 -0.36225 -0.22000
                    CHANNELS 3 Zrotation Xrotation Yrotation
                    JOINT RightArm
                    {
                         OFFSET -10.28270 -0.00338 0.32212
                         CHANNELS 3 Zrotation Xrotation Yrotation
                         JOINT RightForeArm
                         {
                              OFFSET -32.89710 0.09914 -1.42434
                              CHANNELS 3 Zrotation Xrotation Yrotation
                              JOINT RightHand
                              {
                                   OFFSET -27.49210 0.08536 1.02216
                                   CHANNELS 3 Zrotation Xrotation Yrotation
                                   End Site
                                   {
                                        OFFSET -16.63120 -0.60000 1.50291
                                   }
                              }
                         }
                    }
               }
          }
     }
     JOINT LeftUpLeg
     {
          OFFSET 8.94580 -8.66707 0.10165
          CHANNELS 3 Zrotation Xrotation Yrotation
          JOINT LeftLeg
          {
               OFFSET 0.00000 -44.42270 1.37270
               CHANNELS 3 Zrotation Xrotation Yrotation
               JOINT LeftFoot
               {
                    OFFSET -0.25355 -42.09240 -1.46059
                    CHANNELS 3 Zrotation Xrotation Yrotation
                    JOINT LeftToes
                    {
                         OFFSET -0.04000 -4.41509 8.49910
                         CHANNELS 3 Zrotation Xrotation Yrotation
                         End Site
                         {
                              OFFSET 0.08000 -0.04745 9.77979
                         }
                    }
               }
          }
     }
     JOINT RightUpLeg
     {
          OFFSET -8.94580 -8.66707 0.10165
          CHANNELS 3 Zrotation Xrotation Yrotation
          JOINT RightLeg
          {
               OFFSET 0.00000 -44.42270 1.37270
               CHANNELS 3 Zrotation Xrotation Yrotation
               JOINT RightFoot
               {
                    OFFSET 0.25355 -42.09240 -1.46059
                    CHANNELS 3 Zrotation Xrotation Yrotation
                    JOINT RightToes
                    {
                         OFFSET 0.04000 -4.41509 8.49910
                         CHANNELS 3 Zrotation Xrotation Yrotation
                         End Site
                         {
                              OFFSET -0.08000 -0.13745 9.77979
                         }
                    }
               }
          }
     }
}
MOTION
Frames: 15
Frame Time: 0.01667
28.52807 89.75474 -13.46789 8.75652 -0.64123 119.19156 4.26916 15.24018 -14.61320 -0.00484 -0.01483 0.00533 -22.58715 4.28624 62.17044 0.28484 1.81081 3.67932 -22.17884 -62.91623 -33.36560 8.87954 26.75865 -98.83549 -5.60704 21.51833 54.54834 13.24773 3.20536 6.12375 70.14843 5.08312 80.07678 4.95891 37.05880 95.03628 0.47086 13.64239 -1.44684 43.36172 -23.30550 -3.96846 -27.89289 27.86065 46.89667 1.02371 0.14076 0.04383 4.69656 10.69206 -4.49422 -16.93483 -16.39427 2.56958 8.83991 55.69604 -12.73451 6.16544 -0.01067 0.01525 2.02376 -2.98962 -16.28118 
27.91290 89.31296 -14.30040 8.98970 -0.84862 118.76266 4.39944 16.05827 -15.60264 -0.00461 -0.01263 0.00404 -22.34734 3.33295 62.18053 0.22176 1.26625 4.59237 -12.25254 -54.15850 -28.46481 10.48057 21.21515 -83.65069 -1.86015 21.68000 40.70172 12.62212 2.74699 6.02651 67.68998 2.80536 78.11840 3.08660 33.22397 96.61398 1.14299 8.40972 8.47803 42.51800 -22.55155 -3.75632 -28.13303 27.92723 43.80342 4.67278 0.12426 0.02408 -13.45309 -1.61854 -4.87154 -17.11735 -17.41416 2.81800 11.41152 55.92826 -15.16344 5.51378 -0.00877 0.01019 -0.79228 -9.27982 -11.28418 
27.22075 88.93383 -15.17418 9.20234 -0.97670 118.26870 4.44146 16.69788 -16.32512 -0.00323 -0.00955 0.00445 -22.05646 2.62433 61.99232 0.03891 0.95755 5.43903 -5.54752 -44.79728 -28.58901 10.86207 16.38247 -65.56480 -7.19469 17.77638 53.13736 12.02557 2.49282 5.98071 66.25758 1.74446 77.11367 2.25650 30.85883 97.51720 1.12440 8.27590 5.90011 40.83088 -21.32335 -2.69227 -26.44868 27.90899 39.65282 8.14487 0.10085 0.00063 -11.62559 1.42205 -0.12107 -17.19132 -18.41089 3.03234 13.82789 56.29013 -17.28905 5.18378 -0.00627 0.00625 0.26052 -5.47179 -12.92245 
26.48773 88.61608 -16.09098 9.40426 -1.01061 117.73096 4.39680 17.18850 -16.81686 -0.00216 -0.00641 0.00438 -21.75383 2.12868 61.64144 -0.22922 0.85445 6.18330 -0.66885 -36.36939 -32.60962 9.20710 13.05973 -44.70134 4.53849 17.56241 30.42972 11.40192 2.41567 5.90686 65.61145 1.34262 76.72100 1.95604 29.48477 98.23623 1.47127 6.19294 10.17334 39.17102 -20.17714 -1.52183 -24.38205 27.72034 35.75798 11.40531 0.07616 -0.01618 -31.69793 -12.60298 -5.42319 -17.19320 -19.38502 3.20070 16.12764 56.74134 -19.14514 5.17907 -0.00558 0.00497 -0.77764 -7.59590 -11.61406 
25.74502 88.34988 -17.03223 9.59725 -0.95866 117.15696 4.28125 17.54512 -17.09554 -0.00118 -0.00336 0.00462 -21.48245 1.81644 61.14695 -0.41288 0.92594 6.94268 2.24964 -30.71401 -39.63124 5.14760 10.51197 -22.67892 -9.55543 7.85649 27.62260 10.75472 2.47813 5.87114 65.51758 1.24082 76.66280 1.92471 28.73751 98.67445 1.33234 6.76162 7.43466 37.57172 -19.15126 -0.26428 -22.14897 27.46571 32.19398 14.47277 0.05524 -0.02373 -31.31949 -9.86625 0.24757 -17.14382 -20.32419 3.31863 18.23914 57.24059 -20.70338 5.41420 -0.00514 0.00335 -0.81248 -7.20665 -11.77435 
25.02185 88.13000 -17.97777 9.76879 -0.83952 116.54842 4.11833 17.78708 -17.19560 -0.00052 0.00057 0.00416 -21.27984 1.62957 60.53383 -0.31118 1.12800 7.13469 4.34073 -27.83234 -44.15979 0.43772 4.59431 -5.02010 5.52924 9.41995 12.99331 10.12071 2.62653 5.80863 65.76462 1.38135 76.73752 1.96273 28.39351 99.03433 1.56825 6.04905 9.23687 36.04411 -18.26792 1.05826 -19.92486 27.22898 29.02052 17.38673 0.03817 -0.02485 -35.70890 -12.28671 -0.60097 -17.05255 -21.22343 3.38457 20.12041 57.73190 -21.99699 5.83419 -0.00570 0.00149 -1.31451 -8.11344 -11.50516 
24.34476 87.95377 -18.91650 9.89940 -0.67654 115.90158 3.90779 17.92688 -17.12450 -0.00098 0.00309 0.00445 -21.14297 1.53079 59.80970 -0.24680 1.38526 6.99175 5.40763 -26.63217 -47.03295 -1.12298 -4.57235 7.25967 -2.65858 -0.48050 -1.04102 9.51228 2.82332 5.80787 66.23267 1.61582 76.81188 1.98107 28.28688 99.25690 1.54089 6.72281 7.04449 34.59204 -17.52885 2.42665 -17.82697 27.09517 26.27924 20.19492 0.02638 -0.02110 -38.20051 -12.12126 1.13545 -16.92695 -22.07063 3.39931 21.68664 58.17123 -23.05695 6.26387 -0.00590 -0.00126 -1.44466 -8.09405 -11.71389 
23.73483 87.82383 -19.84609 9.97172 -0.49144 115.21089 3.65854 17.97139 -16.87893 -0.00095 0.00444 0.00514 -21.06211 1.49718 58.97189 -0.11092 1.67693 6.75566 1.29995 -28.16231 -48.97513 1.94832 -10.54777 12.44849 17.04005 -0.58206 -5.09366 8.98061 3.05822 5.87172 66.78258 1.88584 76.80389 1.91729 28.32080 99.47748 1.73101 6.54135 7.79340 33.21752 -16.92513 3.82197 -15.92328 27.11344 23.98178 22.93358 0.01801 -0.01495 -41.76941 -13.47207 1.13247 -16.77552 -22.84889 3.36578 22.86884 58.51712 -23.92311 6.62290 -0.00631 -0.00392 -1.60101 -8.16956 -12.11334 
23.20469 87.74551 -20.76705 9.97662 -0.30161 114.47317 3.37500 17.93354 -16.44619 -0.00115 0.00525 0.00639 -21.00481 1.51738 58.00999 -0.08926 1.97783 6.59823 -5.55008 -30.53342 -49.13054 5.91764 -14.74123 8.15226 -0.20900 13.64837 -24.76290 8.52434 3.32594 6.03032 67.35985 2.10519 76.69122 1.77589 28.42644 99.66951 1.77158 7.06555 6.26139 31.92515 -16.44440 5.22379 -14.24403 27.31145 22.12045 25.62854 0.01282 -0.00770 -44.91981 -14.35206 1.61671 -16.60986 -23.53460 3.28694 23.60158 58.74206 -24.59684 6.84799 -0.00722 -0.00568 -1.51237 -7.81347 -12.75723 
22.75670 87.72189 -21.67792 9.91448 -0.11978 113.69193 3.06549 17.82634 -15.81476 -0.00145 0.00550 0.00772 -20.93683 1.59082 56.91361 -0.07603 2.29053 6.67019 -13.68582 -33.65398 -47.76505 7.09355 -16.40711 -4.78671 7.02937 -5.42234 -16.15837 8.15415 3.62408 6.26592 67.91065 2.22325 76.45213 1.57862 28.56919 99.91187 1.91886 7.04386 6.58899 30.72273 -16.07907 6.60969 -12.79442 27.69442 20.67030 28.29448 0.00988 -0.00057 -48.27387 -15.81648 1.59288 -16.44195 -24.10346 3.16455 23.84424 58.82658 -25.03554 6.99224 -0.00864 -0.00599 -1.30778 -7.37004 -13.41949 
22.38036 87.75267 -22.57299 9.79009 0.03739 112.87501 2.74007 17.67274 -14.98804 -0.00210 0.00654 0.00874 -20.81638 1.70026 55.68239 -0.21944 2.57621 6.63593 -22.45435 -37.94651 -45.76254 4.28072 -13.79163 -23.08233 23.58182 9.07620 -24.50854 7.85263 3.92423 6.55117 68.43497 2.22818 76.09372 1.36451 28.72325 100.18305 2.00615 7.39797 5.56226 29.62591 -15.83249 7.96176 -11.56129 28.24792 19.59509 30.93541 0.00858 0.00545 -51.49467 -17.27630 1.59331 -16.28852 -24.50024 2.99630 22.44555 57.55615 -25.51484 15.72847 0.04504 -0.20131 -9.39970 -5.49074 -12.54635 
22.06524 87.83044 -23.44754 9.61116 0.15799 112.04348 2.40662 17.48623 -13.97945 -0.00290 0.00666 0.00955 -20.60697 1.84295 54.31797 -0.35910 2.83187 6.63430 -31.74361 -43.81449 -44.08517 -0.11826 -6.31222 -43.01636 16.93672 12.04675 -11.92542 7.63790 4.20920 6.87324 68.90962 2.08682 75.60121 1.16835 28.87533 100.52031 2.13145 7.44625 5.67690 28.64768 -15.71095 9.25646 -10.52494 28.94032 18.85109 33.54661 0.00814 0.00987 -54.70471 -18.89651 1.37231 -16.15560 -24.72015 2.78020 21.23601 56.81462 -25.62675 10.76546 -0.04826 0.04913 -3.84187 -4.31136 -12.16103 
21.80730 87.94334 -24.30052 9.38730 0.23441 111.22967 2.07429 17.27737 -12.81921 -0.00266 0.00670 0.01003 -20.28328 2.01561 52.82536 -0.39890 3.05079 6.62718 -41.83297 -51.03601 -43.59661 -4.33102 5.00988 -62.29638 25.52582 0.75403 -14.83421 7.51944 4.46259 7.20623 69.33350 1.80280 74.98899 1.00752 29.01598 100.89445 2.23835 7.72797 4.98125 27.79862 -15.71200 10.46634 -9.66682 29.73318 18.38991 36.11600 0.00807 0.01279 -57.84535 -20.43637 1.05498 -16.04546 -24.78316 2.51294 20.02121 56.24081 -25.20659 12.73505 0.01266 -0.00063 -5.19981 -3.83747 -11.39217 
21.60688 88.07976 -25.13163 9.13047 0.25704 110.46547 1.75450 17.05555 -11.54505 -0.00167 0.00640 0.01004 -19.82830 2.21318 51.21574 -0.28890 3.22615 6.48432 -53.87327 -58.79014 -45.43632 -7.92431 18.28252 -79.90140 20.16227 18.78363 4.28613 7.49426 4.67092 7.50800 69.72629 1.40087 74.29207 0.89355 29.14244 101.30883 2.34057 7.87272 5.00318 27.08852 -15.82756 11.56922 -8.96995 30.58841 18.16376 38.63182 0.00807 0.01439 -60.95280 -21.88250 0.59812 -15.97687 -24.69922 2.18572 18.62594 55.71060 -24.17824 11.52966 -0.01589 0.01222 -3.35212 -3.61618 -10.53641 
21.45215 88.23013 -25.94331 8.86502 0.24402 109.71929 1.43729 16.82851 -10.23779 0.00073 0.00217 0.00349 -19.30630 2.40110 49.57929 0.11546 3.40169 6.21758 -69.92534 -66.08501 -51.65808 -9.18731 32.12325 -94.95719 17.25396 23.02725 15.15708 7.53818 4.86679 7.81053 70.09361 0.93757 73.56559 0.80182 29.26436 101.74472 2.44553 8.06325 4.88875 26.44606 -15.99736 12.64585 -8.31972 31.43262 18.00058 41.12347 0.00880 0.01451 -64.04456 -23.25240 0.09797 -15.91661 -24.55001 1.83859 17.18306 55.15055 -22.96187 10.87281 -0.00824 0.00519 -2.02939 -3.51963 -9.63309 
